<?xml version="1.0" encoding="UTF-8" standalone="no"?>
<!-- Created with Inkscape (http://www.inkscape.org/) -->

<svg
   width="102.45835mm"
   height="100.93114mm"
   viewBox="0 0 102.45835 100.93114"
   version="1.1"
   id="svg1"
   xml:space="preserve"
   inkscape:version="1.4 (e7c3feb100, 2024-10-09)"
   sodipodi:docname="logo.svg"
   xmlns:inkscape="http://www.inkscape.org/namespaces/inkscape"
   xmlns:sodipodi="http://sodipodi.sourceforge.net/DTD/sodipodi-0.dtd"
   xmlns:xlink="http://www.w3.org/1999/xlink"
   xmlns="http://www.w3.org/2000/svg"
   xmlns:svg="http://www.w3.org/2000/svg"><sodipodi:namedview
     id="namedview1"
     pagecolor="#ffffff"
     bordercolor="#000000"
     borderopacity="0.25"
     inkscape:showpageshadow="2"
     inkscape:pageopacity="0.0"
     inkscape:pagecheckerboard="0"
     inkscape:deskcolor="#d1d1d1"
     inkscape:document-units="mm"
     inkscape:zoom="1.68088"
     inkscape:cx="197.81305"
     inkscape:cy="189.18661"
     inkscape:window-width="1745"
     inkscape:window-height="911"
     inkscape:window-x="0"
     inkscape:window-y="0"
     inkscape:window-maximized="1"
     inkscape:current-layer="layer1" /><defs
     id="defs1"><linearGradient
       id="linearGradient274"
       inkscape:collect="always"><stop
         style="stop-color:#892a8c;stop-opacity:1;"
         offset="0"
         id="stop274" /><stop
         style="stop-color:#892a8c;stop-opacity:0;"
         offset="1"
         id="stop275" /></linearGradient><linearGradient
       id="linearGradient272"
       inkscape:collect="always"><stop
         style="stop-color:#f9ab33;stop-opacity:1;"
         offset="0"
         id="stop272" /><stop
         style="stop-color:#f9ab33;stop-opacity:0;"
         offset="1"
         id="stop273" /></linearGradient><linearGradient
       id="linearGradient269"
       inkscape:collect="always"><stop
         style="stop-color:#7ebe84;stop-opacity:1;"
         offset="0"
         id="stop269" /><stop
         style="stop-color:#365137;stop-opacity:0;"
         offset="1"
         id="stop270" /></linearGradient><linearGradient
       id="linearGradient266"
       inkscape:collect="always"><stop
         style="stop-color:#2b9ea7;stop-opacity:1;"
         offset="0"
         id="stop266" /><stop
         style="stop-color:#2b9ea7;stop-opacity:0;"
         offset="1"
         id="stop267" /></linearGradient><linearGradient
       id="linearGradient263"
       inkscape:collect="always"><stop
         style="stop-color:#113e88;stop-opacity:1;"
         offset="0"
         id="stop263" /><stop
         style="stop-color:#113e88;stop-opacity:0;"
         offset="1"
         id="stop264" /></linearGradient><linearGradient
       inkscape:collect="always"
       xlink:href="#linearGradient263"
       id="linearGradient264"
       x1="172.26907"
       y1="35.682621"
       x2="49.152218"
       y2="64.748596"
       gradientUnits="userSpaceOnUse" /><linearGradient
       inkscape:collect="always"
       xlink:href="#linearGradient266"
       id="linearGradient267"
       x1="178.88573"
       y1="77.272957"
       x2="183.37558"
       y2="-10.397585"
       gradientUnits="userSpaceOnUse" /><linearGradient
       inkscape:collect="always"
       xlink:href="#linearGradient269"
       id="linearGradient270"
       x1="158.09055"
       y1="98.304436"
       x2="240.32599"
       y2="72.310478"
       gradientUnits="userSpaceOnUse" /><linearGradient
       inkscape:collect="always"
       xlink:href="#linearGradient272"
       id="linearGradient273"
       x1="129.9698"
       y1="86.252693"
       x2="210.55109"
       y2="165.17981"
       gradientUnits="userSpaceOnUse" /><linearGradient
       inkscape:collect="always"
       xlink:href="#linearGradient274"
       id="linearGradient275"
       x1="130.20612"
       y1="56.714096"
       x2="72.074165"
       y2="159.74471"
       gradientUnits="userSpaceOnUse" /><linearGradient
       inkscape:collect="always"
       xlink:href="#linearGradient263"
       id="linearGradient276"
       gradientUnits="userSpaceOnUse"
       x1="172.26907"
       y1="35.682621"
       x2="49.152218"
       y2="64.748596" /><linearGradient
       inkscape:collect="always"
       xlink:href="#linearGradient263"
       id="linearGradient277"
       gradientUnits="userSpaceOnUse"
       x1="172.26907"
       y1="35.682621"
       x2="49.152218"
       y2="64.748596" /><linearGradient
       inkscape:collect="always"
       xlink:href="#linearGradient263"
       id="linearGradient278"
       gradientUnits="userSpaceOnUse"
       x1="172.26907"
       y1="35.682621"
       x2="49.152218"
       y2="64.748596" /><linearGradient
       inkscape:collect="always"
       xlink:href="#linearGradient266"
       id="linearGradient279"
       gradientUnits="userSpaceOnUse"
       x1="178.88573"
       y1="77.272957"
       x2="183.37558"
       y2="-10.397585" /><linearGradient
       inkscape:collect="always"
       xlink:href="#linearGradient266"
       id="linearGradient280"
       gradientUnits="userSpaceOnUse"
       x1="178.88573"
       y1="77.272957"
       x2="183.37558"
       y2="-10.397585" /><linearGradient
       inkscape:collect="always"
       xlink:href="#linearGradient266"
       id="linearGradient281"
       gradientUnits="userSpaceOnUse"
       x1="178.88573"
       y1="77.272957"
       x2="183.37558"
       y2="-10.397585" /><linearGradient
       inkscape:collect="always"
       xlink:href="#linearGradient274"
       id="linearGradient282"
       gradientUnits="userSpaceOnUse"
       x1="130.20612"
       y1="56.714096"
       x2="72.074165"
       y2="159.74471" /><linearGradient
       inkscape:collect="always"
       xlink:href="#linearGradient274"
       id="linearGradient283"
       gradientUnits="userSpaceOnUse"
       x1="130.20612"
       y1="56.714096"
       x2="72.074165"
       y2="159.74471" /><linearGradient
       inkscape:collect="always"
       xlink:href="#linearGradient274"
       id="linearGradient284"
       gradientUnits="userSpaceOnUse"
       x1="130.20612"
       y1="56.714096"
       x2="72.074165"
       y2="159.74471" /><linearGradient
       inkscape:collect="always"
       xlink:href="#linearGradient269"
       id="linearGradient285"
       gradientUnits="userSpaceOnUse"
       x1="158.09055"
       y1="98.304436"
       x2="240.32599"
       y2="72.310478" /><linearGradient
       inkscape:collect="always"
       xlink:href="#linearGradient269"
       id="linearGradient286"
       gradientUnits="userSpaceOnUse"
       x1="158.09055"
       y1="98.304436"
       x2="240.32599"
       y2="72.310478" /><linearGradient
       inkscape:collect="always"
       xlink:href="#linearGradient269"
       id="linearGradient287"
       gradientUnits="userSpaceOnUse"
       x1="158.09055"
       y1="98.304436"
       x2="240.32599"
       y2="72.310478" /><linearGradient
       inkscape:collect="always"
       xlink:href="#linearGradient272"
       id="linearGradient288"
       gradientUnits="userSpaceOnUse"
       x1="129.9698"
       y1="86.252693"
       x2="210.55109"
       y2="165.17981" /><linearGradient
       inkscape:collect="always"
       xlink:href="#linearGradient272"
       id="linearGradient289"
       gradientUnits="userSpaceOnUse"
       x1="129.9698"
       y1="86.252693"
       x2="210.55109"
       y2="165.17981" /><linearGradient
       inkscape:collect="always"
       xlink:href="#linearGradient272"
       id="linearGradient290"
       gradientUnits="userSpaceOnUse"
       x1="129.9698"
       y1="86.252693"
       x2="210.55109"
       y2="165.17981" /></defs><g
     inkscape:label="Layer 1"
     inkscape:groupmode="layer"
     id="layer1"
     transform="translate(-100.88762,-23.172164)"><g
       id="g259"
       style="fill:url(#linearGradient264);fill-opacity:1"><path
         style="fill:url(#linearGradient276);fill-opacity:1"
         d="m 105.86897,52.354493 c 0,-0.111581 1.91433,-3.464681 2.42728,-4.251582 1.13526,-1.741554 1.52332,-2.303299 2.27619,-3.294967 7.53013,-9.918637 17.90143,-16.733603 29.73266,-19.537291 1.08723,-0.257645 2.08165,-0.496471 2.20982,-0.530725 0.12818,-0.03425 -0.17403,0.16764 -0.67157,0.448652 -7.35563,4.154474 -12.18214,12.955492 -11.65167,21.246528 l 0.0622,0.971952 -0.70429,-0.213743 c -8.01654,-2.432892 -16.80857,-0.679272 -22.89409,4.566358 -0.43259,0.372881 -0.78652,0.64055 -0.78652,0.594818 z"
         id="path258" /><path
         style="fill:url(#linearGradient277);fill-opacity:1"
         d="m 143.63458,57.519489 c -2.00715,-3.583821 -7.54679,-8.152972 -11.52356,-9.504757 -0.98176,-0.33372 -0.58532,-6.136368 0.67009,-9.808003 5.33954,-15.616329 27.41362,-20.742581 31.41029,-7.294392 1.87237,6.300268 -2.01585,12.024942 -9.51844,14.014115 -6.41802,1.701621 -10.23384,5.990897 -10.67932,12.004386 l -0.0805,1.086095 z"
         id="path257" /><path
         style="fill:url(#linearGradient278);fill-opacity:1"
         d="m 151.0096,67.775686 c -3.39728,-1.228015 -5.8851,-5.984787 -5.59452,-10.696831 0.31673,-5.135847 3.74379,-9.269351 8.81024,-10.626347 6.57844,-1.761967 9.84075,-4.464918 11.37846,-9.427503 l 0.31686,-1.022576 0.008,-1.988343 c 0.009,-2.292243 -0.14147,-3.086364 -0.87702,-4.638173 l -0.44818,-0.945537 0.68602,0.579506 c 9.44561,7.979095 10.29175,22.665777 1.79773,31.203774 -2.42438,2.436938 -7.42636,5.514027 -11.63793,7.159362 l -1.39826,0.546256 -1.22347,0.03556 c -0.97785,0.02842 -1.34272,-0.0075 -1.81746,-0.179149 z"
         id="path256" /></g><g
       id="g264"
       style="fill:url(#linearGradient267);fill-opacity:1"><path
         style="fill:url(#linearGradient279);fill-opacity:1"
         d="m 197.23174,50.91994 c -4.98507,-5.320115 -14.61317,-7.430005 -22.14507,-4.852844 -0.35025,0.119846 -0.65175,0.217902 -0.67,0.217902 -0.0182,0 -0.0332,-0.457541 -0.0332,-1.016757 0,-7.977707 -5.03265,-16.042788 -12.64257,-20.260385 l -0.5826,-0.322895 0.52434,0.07237 c 12.99358,1.793274 27.73338,12.164955 35.04486,24.65937 1.46293,2.499973 1.47674,2.541148 0.5042,1.503243 z"
         id="path259" /><path
         style="fill:url(#linearGradient280);fill-opacity:1"
         d="m 189.23997,73.054368 c -3.35388,-0.630927 -5.42034,-1.83391 -8.03864,-4.679669 -4.15663,-4.517728 -7.55755,-6.161774 -12.51831,-6.051497 l -1.75267,0.03896 0.97187,-0.965766 c 3.59467,-3.572068 5.88966,-8.184952 6.32037,-12.703806 0.0893,-0.936505 0.0224,-0.87236 1.38439,-1.327217 10.89325,-3.637832 22.81152,2.443797 25.75023,13.139773 1.96122,7.138231 -4.6245,13.958739 -12.11724,12.54922 z"
         id="path255" /><path
         style="fill:url(#linearGradient281);fill-opacity:1"
         d="m 179.2774,86.213828 c -5.83274,-0.651761 -8.62043,-1.810731 -14.2079,-5.906862 -4.02767,-2.952655 -6.03031,-4.81983 -6.75577,-6.298798 l -0.41799,-0.852147 0.0113,-1.022576 c 0.0506,-4.59216 5.81464,-8.692053 11.85738,-8.433962 4.01897,0.171654 6.79454,1.686164 10.42709,5.689614 2.29806,2.53271 4.72278,4.039074 7.75813,4.819772 l 1.17385,0.301916 1.98087,-0.0039 1.98086,-0.0039 1.13093,-0.29643 c 3.91208,-1.025397 7.09909,-3.844623 8.25197,-7.299669 0.40652,-1.218275 0.15685,0.736326 -0.37007,2.897298 -2.51405,10.310291 -12.5866,17.55315 -22.82061,16.409584 z"
         id="path252" /></g><g
       id="g269"
       style="fill:url(#linearGradient275);fill-opacity:1"><path
         style="fill:url(#linearGradient282);fill-opacity:1"
         d="m 138.78624,75.981107 c -6.03317,-0.627305 -10.48219,-5.231625 -11.12852,-11.516981 -1.05771,-10.285803 -9.68752,-16.165764 -18.5159,-12.615895 -0.47187,0.189741 -0.88745,0.344983 -0.92351,0.344983 -0.11018,0 1.33151,-0.996479 2.13859,-1.478166 14.63717,-8.735824 34.39716,1.165694 35.9666,18.022474 l 0.1387,1.489718 -0.18495,1.103568 c -0.54556,3.255172 -3.46692,5.068708 -7.49101,4.650299 z"
         id="path254" /><path
         style="fill:url(#linearGradient283);fill-opacity:1"
         d="m 118.74457,83.313229 c -15.61468,-2.978466 -22.43829,-24.051335 -9.69203,-29.931204 7.95282,-3.668649 16.16469,1.490077 17.1512,10.77445 0.60846,5.726471 3.1288,9.562131 7.86339,11.967174 l 0.64087,0.325544 -0.40783,0.03686 c -4.20078,0.379668 -9.69207,2.867513 -13.39995,6.070877 l -1.10695,0.956335 z"
         id="path253" /><path
         style="fill:url(#linearGradient284);fill-opacity:1"
         d="m 115.40919,108.39699 c -8.58661,-9.057551 -13.32798,-19.118951 -14.38508,-30.525758 -0.2223,-2.398796 -0.16344,-7.727131 0.10668,-9.657661 l 0.15103,-1.079386 0.0915,0.454478 c 1.65556,8.226795 7.77643,14.624417 16.14782,16.877918 0.54474,0.146638 1.00793,0.277863 1.02932,0.29161 0.0214,0.01375 -0.27348,0.425482 -0.65527,0.914966 -5.28192,6.771792 -6.12901,14.803393 -2.34376,22.222043 0.37465,0.73427 0.6696,1.33076 0.65545,1.32553 -0.0142,-0.005 -0.37309,-0.3759 -0.79765,-0.82374 z"
         id="path250" /></g><g
       id="g267"
       style="fill:url(#linearGradient270);fill-opacity:1"><path
         style="fill:url(#linearGradient285);fill-opacity:1"
         d="m 189.29293,107.83961 c 2.414,-5.19139 2.15395,-11.833711 -0.67835,-17.326601 -0.51409,-0.997 -1.89224,-3.135212 -2.10239,-3.261856 -0.25329,-0.152644 -0.1144,-0.256943 0.52917,-0.397381 5.57496,-1.216551 11.47418,-5.832032 14.17683,-11.091775 0.9412,-1.831719 1.82956,-4.521989 1.82956,-5.540567 0,-0.361914 0.0307,-0.432707 0.14097,-0.325173 0.23897,0.233013 0.19483,7.052207 -0.0597,9.22479 -0.80525,6.873244 -2.84816,13.029202 -6.32378,19.055632 -2.16668,3.756841 -4.14683,6.394061 -7.65783,10.198921 -0.13958,0.15126 -0.0912,-0.0269 0.14552,-0.53599 z"
         id="path251" /><path
         style="fill:url(#linearGradient286);fill-opacity:1"
         d="m 173.35616,116.44713 c -1.32363,-0.24821 -2.88662,-0.78625 -3.53497,-1.21687 -0.17011,-0.11299 -0.34722,-0.20543 -0.39358,-0.20543 -0.16197,0 -1.6316,-1.1271 -2.10246,-1.61245 -1.36844,-1.41053 -2.23605,-2.98089 -2.74732,-4.97262 l -0.36368,-1.41677 0.0678,-1.31079 c 0.0709,-1.37141 0.40869,-2.79179 0.8846,-3.71973 0.13467,-0.26257 0.24484,-0.52135 0.24484,-0.57508 0,-0.0537 0.0918,-0.19879 0.20392,-0.32238 0.11215,-0.12358 0.21994,-0.29515 0.23953,-0.38128 0.0573,-0.25184 1.21692,-1.838661 1.4453,-1.977731 0.11475,-0.0699 0.20864,-0.18352 0.20864,-0.25254 0,-0.069 0.10487,-0.21803 0.23304,-0.33114 0.12817,-0.1131 0.23304,-0.16454 0.23304,-0.1143 0,0.0502 0.13646,-0.15914 0.30323,-0.46528 0.16678,-0.30614 0.34429,-0.58218 0.39448,-0.61342 0.13426,-0.0836 1.10575,-2.12352 1.32685,-2.78612 0.9117,-2.73214 0.6269,-6.557382 -0.67033,-9.003484 l -0.18757,-0.353679 1.31014,0.575454 c 1.94182,0.852901 2.71808,1.123347 4.46473,1.555483 2.49931,0.61835 6.44351,0.869431 8.70682,0.554261 l 1.14145,-0.158948 0.6381,0.826723 c 5.79866,7.51275 5.34448,18.013331 -1.05608,24.416521 -2.99037,2.99159 -7.38875,4.537 -10.99049,3.8616 z"
         id="path248" /><path
         style="fill:url(#linearGradient287);fill-opacity:1"
         d="m 167.91657,117.52759 c -3.34564,-0.52455 -7.05825,-2.0818 -9.65882,-4.05136 -1.01176,-0.76627 -3.26368,-2.91635 -3.58434,-3.42226 -0.12873,-0.20309 -0.28222,-0.36926 -0.34108,-0.36926 -0.0589,0 -0.10701,-0.0767 -0.10701,-0.17043 0,-0.0937 -0.0467,-0.17043 -0.10384,-0.17043 -0.14272,0 -1.29442,-1.67103 -1.29442,-1.87811 0,-0.0919 -0.0507,-0.16704 -0.11276,-0.16704 -0.12737,0 -1.54794,-2.71361 -1.69517,-3.23816 -0.0526,-0.18747 -0.10447,-0.36642 -0.11523,-0.39767 -0.0759,-0.22041 -0.2156,-0.55223 -0.32909,-0.78167 -0.0736,-0.14871 -0.13149,-0.54458 -0.12875,-0.8797 0.003,-0.33512 -0.0344,-0.54722 -0.0825,-0.47133 -0.065,0.10261 -0.0998,0.0951 -0.13554,-0.0293 -0.0264,-0.092 -0.10448,-0.34619 -0.17343,-0.56491 -0.0689,-0.21872 -0.15412,-0.57662 -0.18928,-0.79534 -0.0352,-0.218721 -0.11688,-0.704441 -0.18159,-1.079381 -0.66395,-3.84707 0.11817,-8.95322 1.98006,-12.926893 3.7685,-8.042797 10.30407,-8.928115 15.28768,-2.07089 3.27191,4.502013 2.87599,9.210983 -1.19396,14.200453 -1.34696,1.65128 -2.09434,3.071951 -2.64046,5.019121 l -0.31364,1.11833 -0.005,1.59067 c -0.0163,5.39053 3.66513,10.15965 8.86125,11.47929 l 1.03409,0.26262 -1.74782,-0.003 c -1.09757,-0.002 -2.22468,-0.0775 -3.02956,-0.20368 z"
         id="path246" /></g><g
       id="g268"
       style="fill:url(#linearGradient273);fill-opacity:1"><path
         style="fill:url(#linearGradient288);fill-opacity:1"
         d="m 118.49078,109.97188 c -0.4312,-0.56262 -1.55229,-2.44231 -1.55229,-2.60266 0,-0.0602 -0.0711,-0.19016 -0.15794,-0.28882 -0.19192,-0.21795 -1.03227,-2.19509 -0.99667,-2.34491 0.014,-0.0588 -0.0652,-0.30588 -0.1759,-0.54914 -0.11071,-0.24326 -0.33874,-1.03576 -0.50675,-1.7611 l -0.30546,-1.31882 -0.003,-2.442821 c -0.004,-4.04082 0.81464,-6.89553 2.96648,-10.33938 0.56452,-0.903466 1.2166,-1.763118 2.02447,-2.668908 0.38959,-0.436804 0.76077,-0.857912 0.82486,-0.935797 0.19161,-0.232866 2.1616,-1.880622 2.91303,-2.436551 1.78695,-1.322017 3.84722,-2.364594 6.69998,-3.390449 2.09416,-0.753061 4.83522,-1.170461 7.74867,-1.179945 l 2.44695,-0.008 1.45651,0.26743 c 6.32555,1.161431 8.65612,3.801585 7.63382,8.647894 -1.2071,5.722386 -8.34285,10.056296 -14.21727,8.634886 -3.09941,-0.74995 -5.48071,-0.72669 -8.21476,0.0803 -1.16001,0.34237 -2.34214,0.84179 -2.84672,1.20266 -0.19669,0.14067 -0.49741,0.32498 -0.66829,0.40958 -3.15017,1.55972 -5.66912,6.658901 -5.22718,10.581551 0.0808,0.71702 0.16101,1.4315 0.17828,1.58773 0.0173,0.15623 0.11657,0.50933 0.22066,0.78466 0.24453,0.64682 0.20798,0.6575 -0.24182,0.0706 z"
         id="path249" /><path
         style="fill:url(#linearGradient289);fill-opacity:1"
         d="m 133.42626,119.04466 c -2.73694,-0.3824 -6.66961,-1.834 -8.03158,-2.96456 -0.13459,-0.11172 -0.44024,-0.33095 -0.67923,-0.48717 -0.23899,-0.15623 -0.43488,-0.32108 -0.43532,-0.36635 -4.3e-4,-0.0453 -0.15981,-0.16248 -0.35417,-0.26048 -0.19435,-0.098 -0.32468,-0.22346 -0.28961,-0.27879 0.0351,-0.0553 -0.0288,-0.12946 -0.14184,-0.16473 -0.50269,-0.1568 -2.70074,-3.21456 -2.51801,-3.50287 0.0427,-0.0673 0.0213,-0.0872 -0.0486,-0.0451 -0.076,0.0458 -0.19949,-0.1586 -0.31552,-0.52214 -0.10487,-0.32856 -0.23822,-0.68291 -0.29634,-0.78744 -0.40415,-0.7269 -0.6789,-3.20192 -0.4708,-4.24111 0.0751,-0.37494 0.15814,-0.82987 0.18457,-1.01094 0.0534,-0.36608 0.24913,-1.02687 0.40723,-1.37507 0.0567,-0.12498 0.18516,-0.42747 0.28534,-0.67221 1.38558,-3.384671 5.60684,-5.983171 10.02391,-6.170451 l 1.39825,-0.0593 1.9226,0.37871 1.92261,0.3787 1.68956,0.004 c 3.83268,0.0103 6.83617,-1.17476 9.59745,-3.78679 l 0.91662,-0.86707 -0.0791,0.34086 c -0.67727,2.91736 0.22006,9.488841 1.72947,12.665611 0.16002,0.33679 0.26444,0.65419 0.23202,0.70533 -0.0324,0.0511 -0.01,0.093 0.0503,0.093 0.0601,0 0.17819,0.16617 0.26243,0.36926 0.0842,0.2031 0.18811,0.39483 0.23082,0.42608 0.0427,0.0312 0.27616,0.43241 0.51879,0.89149 0.24263,0.45907 0.56314,0.97604 0.71224,1.14883 0.1491,0.17278 0.2376,0.34681 0.19666,0.38673 -0.0409,0.0399 -0.0151,0.0726 0.0574,0.0726 0.25436,0 0.3883,0.42341 0.19391,0.61296 -0.0983,0.0958 -0.16646,0.18887 -0.15149,0.20673 0.25428,0.30318 -3.58592,4.36303 -4.97105,5.25539 -0.38452,0.24772 -0.80549,0.53987 -0.93549,0.64922 -0.74517,0.6268 -4.99551,2.45932 -5.37489,2.31736 -0.0778,-0.0291 -0.158,-0.005 -0.17816,0.0532 -0.13984,0.40473 -5.49981,0.85207 -7.26098,0.606 z"
         id="path245" /><path
         style="fill:url(#linearGradient290);fill-opacity:1"
         d="m 147.35056,123.93458 c -2.7645,-0.32068 -4.92373,-0.70908 -7.34084,-1.32045 -1.82865,-0.46253 -2.69932,-0.72374 -4.54434,-1.36337 -0.54473,-0.18885 -1.16084,-0.40123 -1.36912,-0.47196 -0.65839,-0.22357 -0.43964,-0.24424 2.2093,-0.20868 1.5375,0.0206 2.68467,-0.0106 2.82577,-0.0771 0.13063,-0.0615 0.52591,-0.17231 0.87839,-0.24627 1.77311,-0.37203 4.43656,-1.33257 5.41382,-1.95241 0.74379,-0.47176 1.13531,-0.65528 1.25023,-0.58603 0.0716,0.0432 0.0991,0.0294 0.0611,-0.0306 -0.038,-0.06 0.28159,-0.33094 0.71026,-0.6021 1.0957,-0.69311 1.48445,-1.0154 3.09039,-2.56209 0.77862,-0.74989 1.45934,-1.34938 1.51273,-1.33221 0.0534,0.0172 0.0716,-0.009 0.0405,-0.058 -0.0311,-0.0491 0.0957,-0.29321 0.28187,-0.54251 0.18614,-0.2493 0.48259,-0.67058 0.65878,-0.93616 0.40766,-0.61448 0.4784,-0.6074 1.13487,0.11362 4.86879,5.34748 12.87519,8.20614 19.86802,7.09381 1.27317,-0.20252 1.38503,-0.18081 0.68304,0.13258 -0.27861,0.12437 -0.97847,0.4393 -1.55525,0.69984 -3.04812,1.37686 -8.0458,2.98594 -10.77822,3.47019 -4.58881,0.81326 -6.25034,0.96354 -10.4765,0.94752 -1.90524,-0.007 -3.7606,-0.0755 -4.55475,-0.16763 z"
         id="path244" /></g></g></svg>
